<svg xmlns="http://www.w3.org/2000/svg" viewBox="0 0 283.25 404.74"><defs><style>.cls-1{fill:#fbd9b7;}</style></defs><g id="Layer_2" data-name="Layer 2"><g id="Layer_10" data-name="Layer 10"><path class="cls-1" d="M282.62,163.06c-1-19.36-1.93-43.18-17.25-57.22-8.93-8.19-20.71-13.34-32.68-15.76a168.59,168.59,0,0,0-3.18-17.82,192.09,192.09,0,0,0-7.18-24.17c-2.41-6.53-5.18-12.8-10.37-17.64-10.38-9.67-26.2-11.36-39.83-8C166.06,11.68,156,2.72,143.73.6c-14-2.43-30.22,2.65-40.11,13.31-7.69-3.07-16.33-3.17-24.51-1.64C68.74,14.21,57.19,18.5,52,28.34c-3.31,6.28-4.58,13.61-4.58,21a49.12,49.12,0,0,0-14.28.26C21.52,51.2,8.71,55.18,3,66.48-1.72,75.91.42,88.2.89,98.38c.67,14.46,1.34,28.91,1.68,43.38.63,27.09,2.18,54,6,80.87A269.8,269.8,0,0,0,16,259.24c3.18,11,7.54,21.7,11.74,32.34q10.05,25.53,21,50.71c-3.43,11.16-5.77,24.07-1.65,35.2,4.07,11,13.51,15.6,24.13,18.45,22.9,6.16,47.82,8.46,71.48,8.53,10.43,0,20.85.64,31.28-.08a148.07,148.07,0,0,0,40.21-8.49c10.92-3.95,21.26-9.5,26.25-20.57,3.67-8.14,3.79-17,2-25.68a58.09,58.09,0,0,0-3.33-10.78c12.29-21.17,23.64-43,32.22-66,5.69-15.22,10-31.13,10.83-47.43C283.24,204.71,283.73,183.82,282.62,163.06Zm-15.42,62.8C266,250.37,255,276.05,243.91,298.55c-4.36,8.84-9,17.53-13.88,26.11-2.37,4.2-7.35,9.8-6.67,14.81a12.59,12.59,0,0,0,1.35,3.71c.22.49.44,1,.65,1.45.06.16.13.34.22.61.67,1.9,1.33,3.8,1.84,5.75a30.78,30.78,0,0,1,1.08,12.48C226.26,379.71,204.94,384,191.21,387c-16.09,3.46-32.17,2.56-48.49,2.51A314.83,314.83,0,0,1,98.18,386a212.71,212.71,0,0,1-21.36-4.07c-5-1.28-10.3-2.08-13.56-5.83-4-4.67-3.61-12.3-2.82-18,.89-6.43,5.28-14,2.64-20.17-3.42-8-6.83-16-10.16-24-11.5-27.67-23.13-55.16-28.2-84.85-5.87-34.39-6.36-68.94-7.65-103.69-.36-9.67-.83-19.33-1.27-29-.29-6.33-1.36-13.37-.49-19.68,1-7.48,9-10.31,15.42-11.64,4.13-.86,16.3-4.15,18.69,1.24,3.44,32,6.83,64,8.8,96.15.59,9.59,15.6,9.66,15,0-2-32.73-5.49-65.4-9-98l0-.18A9.1,9.1,0,0,0,64,62.48a38.46,38.46,0,0,1-1.13-7.58c-.47-5.69-.59-11.77,1.39-17.2C66.64,31,73.35,29.08,80,27.43c6.23-1.56,12.74-1.83,18.54.67,1.86,29.53,3.84,59.05,6.19,88.54.75,9.45,1.53,18.9,2.52,28.33.42,4,3.14,7.5,7.5,7.5,3.73,0,7.93-3.44,7.5-7.5-3.85-36.6-5.92-73.44-8.28-110.17-.19-3-.39-6.07-.58-9.11a36.91,36.91,0,0,1,4.82-4.62c6.28-4.73,15-7.18,22.78-5.79,6.26,1.12,11.6,5.37,15.25,10.17a43.67,43.67,0,0,1,4,6.46c.17.32.32.64.47,1-1.28,37.1-2,74.55.55,111.59.67,9.58,15.67,9.65,15,0-2.49-35.66-1.88-71.69-.69-107.42,9-2.28,19.64-2.29,26.58,4.75,4.13,4.18,5.79,10.14,7.62,15.56a191.71,191.71,0,0,1,5.62,20.26A121.89,121.89,0,0,1,218,93.37c-7.7,7.85-11,20.81-13.45,30.86-5.65,23-8,46.84-9.87,70.42-30.19,9.44-53.86,36.81-61.69,66.83-2.44,9.35,12,13.33,14.46,4,5-19.22,16.34-35.84,33-46.85a93.22,93.22,0,0,1,9.16-5.36c1.4-.72,2.83-1.39,4.26-2l1.43-.63,1.08-.43a61.94,61.94,0,0,1,7.38-2.45c3.39-.81,5.26-4,5.51-7.23,1.83-23.83,4-48,9.55-71.26.87-3.64,1.85-7.26,3-10.83q.73-2.3,1.58-4.54c.22-.56.44-1.12.67-1.68l.49-1.11a54.46,54.46,0,0,1,3.44-6.16l.17-.26.12-.15c.68.13,1.36.27,2,.43a66.69,66.69,0,0,1,13.36,4.43,41.45,41.45,0,0,1,13.79,9.8c4.14,4.7,5.75,10.44,7,16.46,3.23,15.21,3.6,31.07,3.73,46.57C268.3,196.73,267.94,211.32,267.2,225.86Z"/></g></g></svg>