<svg xmlns="http://www.w3.org/2000/svg" viewBox="0 0 302.13 326.89"><defs><style>.cls-1{fill:#231f20;}</style></defs><g id="Layer_2" data-name="Layer 2"><g id="Layer_10" data-name="Layer 10"><path class="cls-1" d="M259.53,255.41c14.78-24.15,38.89-41.93,42.26-71.91,1.14-10.06-.85-20.36-2-30.33-1.94-16.26-3.06-32.94-6.38-49C291,92.6,286,82.62,275.61,76.39c-8.54-5.14-18.51-8.25-28.31-10.47q-2.13-12.15-4-24.35c-1.59-10.36-2.49-21.69-10.16-29.66C226.3,4.8,216.1,2.7,206.71,1.41c-13-1.78-26.44-2.68-38.84,2.31a42.12,42.12,0,0,0-11.82,7c-15.4-5.69-34.26-2.12-49.17,3-9,3.07-17.82,8.51-23.1,16.52-12.59,1.48-25.56,4.43-36.71,10.3C33.25,47.75,25.62,62.92,26.37,78.2A61.58,61.58,0,0,0,9.8,93.83C1.07,106-1,124.87.39,139.39,1.8,154.45,8,166.8,17,178.71c2.43,3.2,4.94,6.33,7.51,9.42l0,0a23.5,23.5,0,0,0,1.93,2.3c1,1.18,2,2.36,3,3.54l4.3,4.88c.5.57,1,1.16,1.49,1.72l.14.16C46.09,215.69,56.25,231.14,66,246.68c3.34,5.31,6.27,11.51,4.06,17.83-1.51,4.31-3.61,8.16-4.38,12.73-2.45,14.51,5.33,27.55,16.82,36,11.33,8.32,26.28,10.89,39.92,12.4,14.07,1.55,28.25,1.37,42.38,1.08,17.47-.39,35-1.5,52.17-4.9,14-2.78,31.49-6.27,40.32-18.65,6.22-8.71,6.44-20.27,3.92-30.31a49.27,49.27,0,0,0-1.83-5.71c-.54-1.38-1.43-4.81-2.65-6.05a1.29,1.29,0,0,0,.07-.21A24.38,24.38,0,0,1,259.53,255.41Zm-91-235.34a30.82,30.82,0,0,1,3-1.66,34,34,0,0,1,6-2.11c7.54-2,15.31-1.47,23-.66C206,16.24,211.9,17,217.15,19A13.32,13.32,0,0,1,224,24.4c2.33,4,3.15,9.55,3.92,14.7,1.41,9.39,2.88,18.77,4.5,28.13a95.66,95.66,0,0,1-41.6,11.15c-5.53.24-11.49.24-17,1.66-6.08-9.13-10.21-19.82-13-30.3a57.44,57.44,0,0,1-1.69-7.87c-.09-.8-.09-1.78-.14-2.65,0-.28.13-1.56.09-1.52a58.19,58.19,0,0,1,5.18-14.05c.87-.78,1.65-1.64,2.55-2.41C166.87,21.22,168.33,20.18,168.51,20.07ZM112.4,27.61c10.41-3.19,24.12-6.83,35.43-3.9A68,68,0,0,0,144.52,34c-1.28,5.7-.14,11.77,1.2,17.35,3,12.6,8.08,26,15.48,36.81-3.37,4.53-5.11,10.25-6.73,15.75a122.63,122.63,0,0,0-4.78,24.28c-9.82,2.79-20.33-9.92-25.43-16.37-6.65-8.41-12.44-17.73-18.13-26.81C101,76.9,95.45,68.36,92.39,59.21A23.22,23.22,0,0,1,94.8,41c0-.07.78-1.5,1.15-2.14a9.37,9.37,0,0,1,2.31-2.9A32.39,32.39,0,0,1,112.4,27.61ZM42.77,67.07C45.14,59.55,50.72,55,57.72,51.94a93.65,93.65,0,0,1,19.13-5.48C74.28,63.52,85.65,80.78,94.7,95c9.33,14.65,22.93,38.36,40.74,45.9-3.85,6.23-8.48,12.95-13.23,15.73-4.23,2.47-13.35,3.42-19.15,1.92a20.81,20.81,0,0,1-5.25-2.07c-.75-.43-1.46-.9-2.17-1.4l0,0c-1.22-1.16-2.39-2.35-3.52-3.61C77.3,134.88,64.8,114.71,52.26,95.86Q46.83,87.7,41.49,79.47c-.06-.81-.12-1.61-.13-2.43A30.92,30.92,0,0,1,42.77,67.07ZM19.48,107c2.39-5.8,7.24-10.74,12.57-14.53Q46.29,114.27,61.3,135.6c6.71,9.46,13.4,19.31,21.38,27.77a32.18,32.18,0,0,0,4.77,4.15c-.81.92-1.62,1.84-2.45,2.73-4.43,4.8-9.25,9.5-15,12.64s-12.39,3.41-18.63,2.67c-3.4-.4-9.44-1.58-12.53-3.73-7.1-8.33-14.19-16.65-19.1-26.55C12.78,141.29,13.56,121.25,19.48,107ZM251,241.33c-5.36,7.28-12.31,17.11-7.81,26.4,2.7,5.57,5.28,12.24,4.45,19.5-1.53,13.42-17.48,16.16-28.45,18.75-17.82,4.22-36.14,5.32-54.39,5.72-11.39.23-22.78.39-34.15-.36s-23.45-2.13-33.8-7c-8.81-4.16-18-13-16.63-23.56.61-4.64,2.26-7,3.81-11.05,2.71-7,2.12-14.88-.6-21.83-3.36-8.6-9.38-16.35-14.43-24S58.94,208.59,53.8,201a48.67,48.67,0,0,0,18.58-2.83c11.93-4.53,21.7-14.59,29.5-24.68a45.87,45.87,0,0,0,24-2.25c7.66-2.84,12.65-9.51,17.37-15.86,2.59-3.47,5-7.06,7.34-10.73a21.73,21.73,0,0,0,5.5,9.48,43.5,43.5,0,0,0,11.58,8.09c-11.06,8.43-21.27,18.63-26.37,31.3-4,9.93-5.87,20.83-6.58,31.47-.63,9.38-.5,20.18,4.33,28.55s17.79.82,12.95-7.57c-3.09-5.35-2.74-14.76-2.24-21.62.66-9,2.36-18.54,6-26.84,5.39-12.28,18.12-21.88,29.26-29.29,2.42.58,4.81,1.08,7.15,1.52,12,2.28,24.08,4.47,36.12,6.66,9.44,1.71,13.49-12.74,4-14.47q-13.86-2.52-27.72-5.08c-10.53-1.95-21.25-3.62-30.88-8.62-5.38-2.8-9-5.31-9.31-11.38-.37-7.82,1.09-15.67,3-23.23,1.32-5.32,2.55-15.88,8.24-18.45s13.36-1.65,19.5-2A107.9,107.9,0,0,0,240.62,79.8c8.31,1.74,16.92,4,24.42,7.87,7.17,3.71,10.51,7.56,12.8,15.91,3.91,14.31,4.54,29.8,6.31,44.5,1.15,9.57,3,19.4,3,29.06C287.25,203,265.25,222,251,241.33Z"/></g></g></svg>