<svg xmlns="http://www.w3.org/2000/svg" viewBox="0 0 271.89 405.86"><defs><style>.cls-1{fill:#1f6075;}</style></defs><g id="Layer_2" data-name="Layer 2"><g id="Layer_10" data-name="Layer 10"><path class="cls-1" d="M261.14,172.84a144,144,0,0,0-19.78-30.43c2.32-26.19,4.68-52.39,6.53-78.62,1.2-17-2-34.77-18.17-43.77-15.32-8.53-38.59-9.44-52.94,1.79-3.32-12.1-14-18.56-26.09-20.6-13.78-2.34-29.58-2.15-40.07,8.53C102.49,18,101.36,29,100.05,40c-1.27,10.5-2.45,21-3.63,31.52q-2.83,25.34-5.59,50.7c-10.41,1.94-21.48,5.44-29.73,11.66-7,5.31-12.41,12.69-16.25,20.64-11,1.87-22,6.2-30,13.8C6.64,176,1.35,189.34.25,200.5c-.64,6.53,0,13.14.82,19.63,1.32,11,3,22,5,32.93,4,21.15,10.51,41.83,17.73,62.07,3.91,11,8.08,21.9,12.62,32.64-3.82,15.69-6.69,34.44,9,44.37,7.24,4.57,16.52,7.1,24.77,9,12.36,2.9,25.16,3.93,37.82,4.32,18.75.58,37.65.71,56.32-1.33a191.51,191.51,0,0,0,31.46-5.62c8.39-2.38,17.46-5.64,23.79-11.9,11.13-11,11.66-29.33,7.95-44a271.76,271.76,0,0,0,17.81-24.54c7.59-11.86,12.17-24.56,16.07-38,5-17.42,8.91-35.39,10.17-53.51A103.71,103.71,0,0,0,261.14,172.84ZM183.07,36.49a24.46,24.46,0,0,1,4.47-4,24.14,24.14,0,0,1,9-3.3,43,43,0,0,1,24.11,3c12.75,6,13.09,19.69,12.21,32-1,14.44-2.26,28.86-3.48,43.28q-1,11.83-2,23.66a97.42,97.42,0,0,0-16.8-6.83c-10.26-3.26-20.61-4.54-31.2-2.13-.6.14-1.18.29-1.77.45q.21-18.73.39-37.48C178.06,73.54,180.1,40.44,183.07,36.49ZM113.51,53.05c.83-7.23,1.41-16,2.79-22.38,2.54-11.7,11.37-16.17,22.84-15.75,9.44.35,21.47,1.77,23.56,12.37,1.33,6.77.37,44.7.28,54.52q-.21,24.25-.5,48.5a41.42,41.42,0,0,0-12.85,19.36A76.37,76.37,0,0,0,138,137.2a71.53,71.53,0,0,0-32.18-15.15q2-18.09,4-36.17Q111.64,69.47,113.51,53.05Zm-42.45,92c7.6-5,17.65-7.52,26.73-9,.59,0,1.18.1,1.77.15h.1l.82.12c1.32.24,2.64.48,4,.78a59.29,59.29,0,0,1,16.95,6.56c14,8.18,22.94,23.51,31.05,37.05q6,9.9,11.25,20.19c1.23,2.4,2.44,4.8,3.6,7.23.44.92.88,1.84,1.29,2.77a11.45,11.45,0,0,1,.68,1.68c1.77,5.49,1.72,11.82-1.64,16.74-2.83,4.15-7.73,6.55-12.19,8.06-14,4.71-28.95,1.84-38.24-10.21-3.46-6.86-8-13.34-12.22-19.7-4.85-7.37-9.84-14.66-15-21.79A100.91,100.91,0,0,0,59.8,158.28c.31-.54.61-1.09.93-1.62C63.41,152.24,66.71,148,71.06,145.08ZM17,193.68c.17-.49.37-1,.55-1.45l.07-.17,0-.1c.46-1,.94-2.07,1.43-3.1a41.92,41.92,0,0,1,4-7.48C27.21,176,34,172.94,40.28,171a70.12,70.12,0,0,1,8-1.94l.25,0c6.47,3.59,12.82,7.52,18.29,12.54,1.53,1.41,3,2.9,4.4,4.43.5.54,1,1.09,1.49,1.65.26.29.5.6.75.9l.13.17.06.07c9,11.68,17.22,24.1,25,36.61,1.52,2.44,3.24,5,4.69,7.62a5.4,5.4,0,0,0,.86,1.71l.09.12c1.9,3.89,3,8,2,12.41-1.66,6.85-7.5,12-14,14.21a58,58,0,0,1-27.54,1.74c-7.72-1.32-13.82-4.26-20.23-8.65a186,186,0,0,1-26.71-22.79c-.29-1.85-.58-3.69-.85-5.54C15.2,214.5,13.71,203.44,17,193.68Zm231.36,77.49c-3.94,14.45-8.43,27.82-16.64,40.45C227.6,318,223.15,324.1,218.49,330c-3,3.79-7.49,7.67-6.41,12.92,1.93,9.47,4.71,19.84-.25,29.25-3.15,6-9.87,8.62-16,10.63a143.32,143.32,0,0,1-25,5.51c-14.55,2.07-29.12,2.41-43.78,2.36-20.64-.08-41.44-.13-61.32-6.35a88.75,88.75,0,0,1-8.58-3c-.31-.13-2-1-2.83-1.41-.56-.31-1.12-.64-1.66-1a4.41,4.41,0,0,0-.72-.43s0-.05-.37-.38-.68-.63-1-1l-.31-.32,0,0A19.27,19.27,0,0,0,49.2,375c-1.11-2.91-1-4.66-.89-8a63.3,63.3,0,0,1,1.44-10.15c1-4.63,2.89-9,1-13.54l-.28-.66-.29-.71c-.92-2.21-1.83-4.44-2.72-6.67A513.33,513.33,0,0,1,22.46,256.5c4.34,3.63,8.8,7.09,13.4,10.31,16.61,11.61,37.35,15,57.07,10.06,14.11-3.53,25.37-14.45,28-27.66a47.46,47.46,0,0,0,30.36,4.69c15.37-2.48,30.85-11.73,33.55-28.25,2.4-14.71-5.54-27.59-12.33-40-3.3-6-6.76-12-10.42-17.8-.21-7.67.77-15.66,5.54-21.94,4.1-5.38,10.34-8.22,16.83-9.52,7.52-1.51,14.88.08,22.08,2.36,7.59,2.4,16.14,5.66,21.79,11.48.1.11.21.2.31.3s.25.34.4.51a135.53,135.53,0,0,1,9.25,12.26c10.45,15.57,18.34,33,18.66,52S253.31,253.05,248.36,271.17Z"/></g></g></svg>